<?xml version="1.0" standalone="no"?>
<!DOCTYPE svg
  PUBLIC '-//W3C//DTD SVG 1.1//EN'
  'http://www.w3.org/Graphics/SVG/1.1/DTD/svg11.dtd'>
<svg class="icon" height="20" p-id="2256" style="" t="1515152296571" version="1.1" viewBox="0 0 1024 1024" width="20" xmlns="http://www.w3.org/2000/svg" xmlns:xlink="http://www.w3.org/1999/xlink">
	<defs>
		<style type="text/css"/>
	</defs>
	<path d="M225.25012456 627.86058098L474.92461438 877.53507079a17.51360662 17.51360662 0 0 0 5.47914927 3.68555225c0.06364385 0.02892875 0.12150204 0.06942944 0.1909315 0.09835891a17.43260598 17.43260598 0 0 0 2.81768248 0.87365537c0.17357394 0.04050069 0.33557597 0.11571574 0.51493626 0.1504308 1.15715945 0.23143218 2.33167643 0.35293352 3.50040709 0.35293352L522.76158218 882.69600164a17.5830368 17.5830368 0 0 0 14.24463173-7.30746139L784.5457444 627.86058098a17.6466799 17.6466799 0 0 0-1e-8-24.96571322l-24.96571322-24.97149883a17.65825183 17.65825183 0 0 0-24.96571324 0l-194.19448391 194.20026951L540.41983402 158.86967761a17.65246624 17.65246624 0 0 0-17.65825184-17.65825183l-35.31071806 0a17.65246624 17.65246624 0 0 0-17.65246622 17.65825183L469.79839789 772.53443019l-194.61106126-194.61106126a17.65825183 17.65825183 0 0 0-24.96571323 0l-24.96571323 24.97149883a17.6466799 17.6466799 0 0 0-0.00578561 24.96571322z" fill="#333333" p-id="2257"/>
</svg>