<svg xmlns="http://www.w3.org/2000/svg" xmlns:xlink="http://www.w3.org/1999/xlink" version="1.1" x="0px" y="0px" viewBox="0 0 100 100" enable-background="new 0 0 100 100" xml:space="preserve"><g><path d="M65.19,23.59c-0.15-0.115-0.354-0.134-0.525-0.051c-0.171,0.084-0.278,0.258-0.278,0.448L64.389,31H31.894   c-3.153,0-12.75,0-12.75,13.603v4.5c0,0.201,0.12,0.382,0.306,0.46c0.185,0.08,0.397,0.038,0.543-0.102l4.072-3.961l4.322,4.007   c0.094,0.087,0.216,0.133,0.34,0.133c0.067,0,0.136-0.014,0.2-0.042c0.182-0.079,0.3-0.259,0.3-0.458v-4.354   c0-1.803,0.451-3.161,1.342-4.036c1.324-1.302,3.365-1.263,4.234-1.253L64.392,39.5l0.002,6.925c0,0.186,0.104,0.356,0.268,0.443   c0.073,0.038,0.153,0.057,0.232,0.057c0.1,0,0.199-0.03,0.284-0.088l15.429-10.652c0.132-0.091,0.212-0.24,0.216-0.4   c0.004-0.16-0.069-0.312-0.196-0.409L65.19,23.59z"></path><path d="M80.518,50.437c-0.185-0.08-0.398-0.038-0.543,0.102L75.902,54.5l-4.322-4.007c-0.145-0.135-0.357-0.172-0.54-0.091   c-0.182,0.079-0.3,0.259-0.3,0.458v4.354c0,1.803-0.451,3.161-1.342,4.036c-1.323,1.302-3.361,1.268-4.234,1.253L35.575,60.5   l-0.002-6.925c0-0.186-0.104-0.356-0.268-0.443c-0.165-0.085-0.363-0.074-0.517,0.031L19.359,63.815   c-0.132,0.091-0.212,0.24-0.216,0.4c-0.004,0.16,0.069,0.312,0.196,0.409L34.776,76.41c0.089,0.068,0.196,0.103,0.304,0.103   c0.075,0,0.151-0.017,0.222-0.052c0.171-0.084,0.278-0.258,0.278-0.448L35.578,69h32.496c3.153,0,12.75,0,12.75-13.603v-4.5   C80.823,50.696,80.703,50.515,80.518,50.437z"></path></g></svg>