<svg version="1.1"  xmlns="http://www.w3.org/2000/svg" xmlns:xlink="http://www.w3.org/1999/xlink" x="0px" y="0px"
	 width="512px" height="512px" viewBox="0 0 512 512" enable-background="new 0 0 512 512" xml:space="preserve">
<g>
	<g id="content-paste" >
		<path fill="#fff" d="M365.772,114.864h-65.863C293.636,96.045,276.386,83.5,256,83.5c-20.387,0-37.637,12.545-43.91,31.364h-65.863
			c-17.25,0-31.364,14.113-31.364,31.363v250.909c0,17.251,14.113,31.364,31.364,31.364h219.544
			c17.251,0,31.364-14.113,31.364-31.364V146.227C397.136,128.977,383.023,114.864,365.772,114.864z M256,114.864
			c9.408,0,15.682,6.272,15.682,15.682s-6.273,15.682-15.682,15.682c-9.409,0-15.683-6.272-15.683-15.682
			S246.591,114.864,256,114.864z M365.772,397.136H146.227V146.227h31.363v47.045h156.818v-47.045h31.363V397.136z"/>
	</g>
</g>
</svg>
