<?xml version="1.0" standalone="no"?><!DOCTYPE svg PUBLIC "-//W3C//DTD SVG 1.1//EN"
  "http://www.w3.org/Graphics/SVG/1.1/DTD/svg11.dtd">
<svg t="1514526330395" class="icon" style="" viewBox="0 0 1024 1024" version="1.1" xmlns="http://www.w3.org/2000/svg"
     p-id="3012" xmlns:xlink="http://www.w3.org/1999/xlink" width="200" height="200">
  <defs>
    <style type="text/css"></style>
  </defs>
  <path
    d="M908.512732 576.454988 114.137527 576.454988c-28.812209 0-49.39192-20.579711-49.39192-49.39192 0-28.812209 20.579711-49.39192 49.39192-49.39192l794.376229 0c28.812209 0 49.39192 20.579711 49.39192 49.39192C957.904653 555.875277 937.324942 576.454988 908.512732 576.454988z"
    p-id="3013" fill="#fff"></path>
  <path
    d="M509.267772 959.236997c-28.812209 0-49.39192-20.579711-49.39192-49.39192L459.875852 115.468848c0-28.812209 20.579711-49.39192 49.39192-49.39192s49.39192 20.579711 49.39192 49.39192L558.659693 909.845077C558.658669 934.540526 538.078958 959.236997 509.267772 959.236997z"
    p-id="3014" fill="#fff"></path>
</svg>
