<svg xmlns="http://www.w3.org/2000/svg" xmlns:xlink="http://www.w3.org/1999/xlink" version="1.1" x="0px" y="0px" viewBox="0 0 128 128" enable-background="new 0 0 128 128" xml:space="preserve"><g fill="#fff"><path  d="M121.7,44.2h-97c-2.3,0-4.3,1.5-5,3.7L1.3,104.6c-1.1,3.4,1.4,6.9,5,6.9h98.4c1.5,0,2.8-1,3.3-2.4   l18.8-58.1C127.8,47.7,125.3,44.2,121.7,44.2z"></path><path d="M24.7,39h84.5v-6.6c0-2.9-2.4-5.3-5.3-5.3H51.7c-2.9,0-5.3-2.4-5.3-5.3c0-2.9-2.4-5.3-5.3-5.3H6.3   c-2.9,0-5.3,2.4-5.3,5.3v67l13.8-42.5C16.2,41.9,20.1,39,24.7,39z"></path></g></svg>
