<?xml version="1.0" encoding="UTF-8"?>
<svg width="43px" height="39px" viewBox="0 0 43 39" version="1.1" xmlns="http://www.w3.org/2000/svg" xmlns:xlink="http://www.w3.org/1999/xlink">
    <!-- Generator: Sketch 44.1 (41455) - http://www.bohemiancoding.com/sketch -->
    <title>Page 1</title>
    <desc>Created with Sketch.</desc>
    <defs></defs>
    <g id="Custom-Symbols" stroke="none" stroke-width="1" fill="none" fill-rule="evenodd">
        <g id="Pages-Icon" fill="#CFD0D3">
            <g id="Page-1">
                <path d="M42.0399778,2.15401198 L17.4489178,0.00243597684 C17.2801678,-0.0123276232 17.1093064,0.0404033768 16.9785292,0.150093577 C16.8477466,0.259778377 16.765483,0.417982177 16.7507194,0.586732177 L16.613608,2.14976218 L7.893688,2.14976218 C7.5372016,2.14976218 7.250332,2.43874858 7.250332,2.79311818 L7.250332,5.87068618 L0.586732001,6.45286018 C0.415870601,6.46762378 0.259778201,6.54989278 0.150093401,6.68067538 C0.0404086014,6.81145798 -0.0123277986,6.98020798 0.00243580144,7.15106398 L2.7171778,38.190264 C2.7467104,38.5256526 3.0272566,38.778756 3.3584278,38.778756 C3.3774088,38.778756 3.3963952,38.7766446 3.4153816,38.7745386 L28.0042816,36.6250686 C28.175143,36.610305 28.3312354,36.528036 28.4430316,36.3972534 C28.5527164,36.2664708 28.6054528,36.0956148 28.5906892,35.9268648 L28.4725642,34.5937128 L32.5795342,34.5937128 C32.9360206,34.5937128 33.2228902,34.3068378 33.2228902,33.9503568 L39.2114902,34.4755932 C39.2304712,34.4777046 39.2494576,34.4777046 39.268444,34.4777046 C39.4182076,34.4777046 39.5658652,34.4249682 39.6818788,34.327941 C39.8126614,34.2182562 39.894925,34.0621584 39.909694,33.889191 L42.624436,2.84999098 C42.6560746,2.49561598 42.3945148,2.18341498 42.040156,2.15387698 L42.0399778,2.15401198 Z M27.2488378,35.401812 L3.9424378,37.439448 L1.3394758,7.68274798 L7.2476158,7.16595178 L7.2476158,33.9526518 C7.2476158,34.3091382 7.5366022,34.5960078 7.8909718,34.5960078 L27.1770718,34.5960078 L27.2488378,35.401812 Z M14.0355778,31.626024 C14.0039392,31.980399 14.2676104,32.2926 14.6219638,32.322138 L25.8690838,33.307206 L8.5383238,33.3093174 L8.5383238,3.43867198 L16.5011638,3.43867198 L14.0355778,31.626024 Z M15.3750478,31.0965702 L17.9780098,1.33987018 L41.2844098,3.37961218 L38.6835538,33.1363122 L15.3750478,31.0965702 Z"></path>
            </g>
        </g>
    </g>
</svg>