<?xml version="1.0" standalone="no"?><!DOCTYPE svg PUBLIC "-//W3C//DTD SVG 1.1//EN" "http://www.w3.org/Graphics/SVG/1.1/DTD/svg11.dtd"><svg t="1516456943913" class="icon" style="" viewBox="0 0 1024 1024" version="1.1" xmlns="http://www.w3.org/2000/svg" p-id="1716" xmlns:xlink="http://www.w3.org/1999/xlink" width="128" height="128"><defs><style type="text/css"></style></defs><path d="M633.01097 977.863761v-0.465H139.658091c-24.667994 0-47.939988-9.773998-65.625984-27.459993-17.685996-17.686996-27.459993-40.95799-27.459993-65.625984V139.627966c0-24.666994 9.773998-47.938988 27.459993-65.624984s40.95799-27.459993 65.625984-27.459993h605.055852c24.667994 0 47.939988 9.773998 65.624984 27.459993 17.686996 17.685996 27.459993 40.95799 27.459993 65.624984v209.442949c0 12.799997 10.472997 23.269994 23.271995 23.269994 12.799997 0 23.269994-10.470997 23.269994-23.269994V139.627966C884.341909 62.832985 821.509924 0 744.714943 0H139.658091C62.86211 0 0.030125 62.832985 0.030125 139.627966v744.684818c0 76.795981 62.832985 139.628966 139.629966 139.628966H633.00997v-0.466c10.704997-2.093999 18.616995-11.634997 18.616996-22.805994s-7.911998-20.710995-18.616996-22.805995z" fill="#ffffff" p-id="1717"></path><path d="M721.442949 192.221953c0-12.799997-10.471997-23.271994-23.271994-23.271994h-511.969875c-12.799997 0-23.271994 10.472997-23.271995 23.271994 0 12.799997 10.471997 23.269994 23.270995 23.269994h511.970875c12.799997 0 23.271994-10.470997 23.271994-23.269994zM186.20008 857.318791h139.629965c12.798997 0 23.270994-10.472997 23.270995-23.271995s-10.471997-23.270994-23.270995-23.270994H186.20008c-12.798997 0-23.269994 10.471997-23.269995 23.269994s10.469997 23.273994 23.269995 23.273995z m0-320.912922h93.085977c12.799997 0 23.270994-10.471997 23.270994-23.271994s-10.471997-23.269994-23.269994-23.269995H186.20008c-12.798997 0-23.269994 10.469997-23.269995 23.269995s10.470997 23.271994 23.269995 23.271994z m831.021797 447.741891l-172.207958-172.209958c39.09599-46.540989 62.599985-106.581974 62.599984-171.973958 0-147.773964-119.847971-267.621935-267.620934-267.621935S372.372034 492.18988 372.372034 639.963844s119.846971 267.619935 267.619935 267.619934c65.625984 0 125.433969-23.502994 171.975958-62.599984l172.208958 172.209958c9.075998 9.074998 23.969994 9.074998 32.811992 0s9.309998-23.969994 0.233-33.045992z m-377.229908-123.10597c-121.94097 0-221.077946-99.135976-221.077946-221.077946s99.136976-221.079946 221.078946-221.079946 221.076946 99.136976 221.076946 221.079946-99.135976 221.077946-221.077946 221.077946z" fill="#ffffff" p-id="1718"></path></svg>