<?xml version="1.0" encoding="utf-8"?>
<!-- Generator: Adobe Illustrator 19.0.0, SVG Export Plug-In . SVG Version: 6.00 Build 0)  -->
<svg version="1.1" id="Layer_1" xmlns="http://www.w3.org/2000/svg" xmlns:xlink="http://www.w3.org/1999/xlink" x="0px" y="0px"
	 viewBox="0 0 50 50" style="enable-background:new 0 0 50 50;" xml:space="preserve">
<style type="text/css">
</style>
<path id="XMLID_4_" class="st0" d="M25,14.9c5.6,0,10.1,4.5,10.1,10.1S30.6,35.1,25,35.1S14.9,30.6,14.9,25S19.4,14.9,25,14.9z
	 M21.6,1.5c-1.2,0-2.2,1-2.2,2.2v3.1c-1.2,0.4-2.3,0.8-3.3,1.4L13.9,6c-0.9-0.9-2.3-0.9-3.2,0L6,10.7c-0.9,0.9-0.9,2.3,0,3.2
	l2.2,2.2c-0.6,1.1-1,2.2-1.4,3.3H3.7c-1.2,0-2.2,1-2.2,2.2v6.7c0,1.2,1,2.2,2.2,2.2h3.1c0.4,1.2,0.8,2.3,1.4,3.3L6,36.1
	c-0.9,0.9-0.9,2.3,0,3.2l4.7,4.7c0.9,0.9,2.3,0.9,3.2,0l2.2-2.2c1.1,0.6,2.2,1,3.3,1.4v3.1c0,1.2,1,2.2,2.2,2.2h6.7
	c1.2,0,2.2-1,2.2-2.2v-3.1c1.2-0.4,2.3-0.8,3.3-1.4l2.2,2.2c0.9,0.9,2.3,0.9,3.2,0l4.8-4.7c0.9-0.9,0.9-2.3,0-3.2l-2.2-2.2
	c0.6-1.1,1-2.2,1.4-3.3h3.1c1.2,0,2.2-1,2.2-2.2v-6.7c0-1.2-1-2.2-2.2-2.2h-3.1c-0.4-1.2-0.8-2.3-1.4-3.3l2.2-2.2
	c0.9-0.9,0.9-2.3,0-3.2L39.2,6c-0.9-0.9-2.3-0.9-3.2,0l-2.2,2.2c-1-0.6-2.2-1-3.3-1.4V3.7c0-1.2-1-2.2-2.2-2.2H21.6z"/>
</svg>
