<?xml version="1.0" standalone="no"?>
<!DOCTYPE svg
  PUBLIC '-//W3C//DTD SVG 1.1//EN'
  'http://www.w3.org/Graphics/SVG/1.1/DTD/svg11.dtd'>
<svg class="icon" height="20" p-id="2696" style="" t="1515152336617" version="1.1" viewBox="0 0 1024 1024" width="20" xmlns="http://www.w3.org/2000/svg" xmlns:xlink="http://www.w3.org/1999/xlink">
	<defs>
		<style type="text/css"/>
	</defs>
	<path d="M798.74987544 396.13941902L549.07538562 146.46492921a17.51360662 17.51360662 0 0 0-5.47914927-3.68555225c-0.06364384-0.02892875-0.12150204-0.06942944-0.1909315-0.09835891a17.43260598 17.43260598 0 0 0-2.81768248-0.87365537c-0.17357394-0.04050068-0.33557597-0.11571574-0.51493626-0.1504308-1.15715945-0.23143218-2.33167643-0.35293352-3.50040709-0.35293351H501.23841782a17.5830368 17.5830368 0 0 0-14.24463173 7.30746138L239.4542556 396.13941902a17.6466799 17.6466799 0 0 0 1e-8 24.96571322l24.96571322 24.97149883a17.65825183 17.65825183 0 0 0 24.96571324 0l194.19448391-194.2002695V865.13032239a17.65246624 17.65246624 0 0 0 17.65825184 17.65825183h35.31071806a17.65246624 17.65246624 0 0 0 17.65246623-17.65825183V251.46556981l194.61106126 194.61106126a17.65825183 17.65825183 0 0 0 24.96571323 0l24.96571323-24.97149883a17.6466799 17.6466799 0 0 0 0.00578561-24.96571322z" fill="#333333" p-id="2697"/>
</svg>