<svg width="73px" height="73px" viewBox="0 0 73 73" version="1.1" xmlns="http://www.w3.org/2000/svg" xmlns:xlink="http://www.w3.org/1999/xlink">
    <!-- Generator: Sketch 45 (43475) - http://www.bohemiancoding.com/sketch -->
    <title>2column-icon</title>
    <desc>Created with Sketch.</desc>
    <defs>
        <rect id="path-1" x="0" y="0" width="73" height="73"></rect>
    </defs>
    <g id="Custom-Symbols" stroke="none" stroke-width="1" fill="none" fill-rule="evenodd">
        <g id="Element-Icons" transform="translate(-106.000000, -40.000000)"></g>
        <g id="2column-icon">
            <g id="Icon-Skeleton">
                <g id="Group-" stroke-width="1" fill-rule="evenodd">
                    <g id="Rectangle">
                        <use fill-opacity="0" fill="#D8D8D8" fill-rule="evenodd" xlink:href="#path-1"></use>
                        <rect stroke-opacity="0.5" stroke="#333333" stroke-width="1" x="0.5" y="0.5" width="72" height="72"></rect>
                    </g>
                </g>
                <text id="Icon-Label" font-family="Helvetica-Bold, Helvetica" font-size="9" font-weight="bold" fill="#CFD0D3">
                    <tspan x="16.2512207" y="67">2-Column</tspan>
                </text>
            </g>
            <path d="M15.38,11.4230452 C15.38,11.9595678 14.9115226,12.4280452 14.375,12.4280452 C13.8384774,12.4280452 13.37,11.9595678 13.37,11.4230452 C13.37,10.8865226 13.8384774,10.4180452 14.375,10.4180452 C14.9769548,10.4180452 15.38,10.8865226 15.38,11.4230452 Z M11.025,10.4180452 C10.4884774,10.4180452 10.02,10.8865226 10.02,11.4230452 C10.02,11.9595678 10.4884774,12.4280452 11.025,12.4280452 C11.5615226,12.4280452 12.03,11.9595678 12.03,11.4230452 C12.03,10.8865226 11.6269548,10.4180452 11.025,10.4180452 Z M66.3,11.02 L66.3,50.55 C66.3,52.761536 64.491536,54.57 62.28,54.57 L10.02,54.57 C7.808464,54.57 6,52.761536 6,50.55 L6,11.02 C6,8.808464 7.808464,7 10.02,7 L62.28,7 C64.491536,7 66.3,8.808464 66.3,11.02 Z M64.96,15.778072 L7.34,15.778072 L7.34,50.549732 C7.34,52.023196 8.546536,53.229732 10.02,53.229732 L62.28,53.229732 C63.753464,53.229732 64.96,52.023196 64.96,50.549732 L64.96,15.778072 Z M64.96,11.02 C64.96,9.546536 63.753464,8.34 62.28,8.34 L10.02,8.34 C8.546536,8.34 7.34,9.546536 7.34,11.02 L7.34,14.438072 L64.96,14.438072 L64.96,11.02 Z M17.725,10.4180452 C17.1884774,10.4180452 16.72,10.8865226 16.72,11.4230452 C16.72,11.9595678 17.1884774,12.4280452 17.725,12.4280452 C18.2615226,12.4280452 18.73,11.9595678 18.73,11.4230452 C18.73,10.8865226 18.3269548,10.4180452 17.725,10.4180452 Z M35,18 L37.01,18 L37.01,22 L35,22 L35,18 Z M35,25 L37.01,25 L37.01,29 L35,29 L35,25 Z M35,32 L37.01,32 L37.01,36 L35,36 L35,32 Z M35,39 L37.01,39 L37.01,43 L35,43 L35,39 Z M35,46 L37.01,46 L37.01,50 L35,50 L35,46 Z" id="browser" fill="#CFD0D3"></path>
        </g>
    </g>
</svg>
