<svg width="73px" height="73px" viewBox="0 0 73 73" version="1.1" xmlns="http://www.w3.org/2000/svg" xmlns:xlink="http://www.w3.org/1999/xlink">
    <!-- Generator: Sketch 45 (43475) - http://www.bohemiancoding.com/sketch -->
    <title>4column-icon</title>
    <desc>Created with Sketch.</desc>
    <defs>
        <rect id="path-1" x="0" y="0" width="73" height="73"></rect>
    </defs>
    <g id="Custom-Symbols" stroke="none" stroke-width="1" fill="none" fill-rule="evenodd">
        <g id="Element-Icons" transform="translate(-106.000000, -134.000000)"></g>
        <g id="4column-icon">
            <g id="Icon-Skeleton">
                <g id="Group-" stroke-width="1" fill-rule="evenodd">
                    <g id="Rectangle">
                        <use fill-opacity="0" fill="#D8D8D8" fill-rule="evenodd" xlink:href="#path-1"></use>
                        <rect stroke-opacity="0.5" stroke="#333333" stroke-width="1" x="0.5" y="0.5" width="72" height="72"></rect>
                    </g>
                </g>
                <text id="Icon-Label" font-family="Helvetica-Bold, Helvetica" font-size="9" font-weight="bold" fill="#CFD0D3">
                    <tspan x="16.2512207" y="67">4-Column</tspan>
                </text>
            </g>
            <path d="M15.38,11.4230452 C15.38,11.9595678 14.9115226,12.4280452 14.375,12.4280452 C13.8384774,12.4280452 13.37,11.9595678 13.37,11.4230452 C13.37,10.8865226 13.8384774,10.4180452 14.375,10.4180452 C14.9769548,10.4180452 15.38,10.8865226 15.38,11.4230452 Z M11.025,10.4180452 C10.4884774,10.4180452 10.02,10.8865226 10.02,11.4230452 C10.02,11.9595678 10.4884774,12.4280452 11.025,12.4280452 C11.5615226,12.4280452 12.03,11.9595678 12.03,11.4230452 C12.03,10.8865226 11.6269548,10.4180452 11.025,10.4180452 Z M66.3,11.02 L66.3,50.55 C66.3,52.761536 64.491536,54.57 62.28,54.57 L10.02,54.57 C7.808464,54.57 6,52.761536 6,50.55 L6,11.02 C6,8.808464 7.808464,7 10.02,7 L62.28,7 C64.491536,7 66.3,8.808464 66.3,11.02 Z M64.96,15.778072 L7.34,15.778072 L7.34,50.549732 C7.34,52.023196 8.546536,53.229732 10.02,53.229732 L62.28,53.229732 C63.753464,53.229732 64.96,52.023196 64.96,50.549732 L64.96,15.778072 Z M64.96,11.02 C64.96,9.546536 63.753464,8.34 62.28,8.34 L10.02,8.34 C8.546536,8.34 7.34,9.546536 7.34,11.02 L7.34,14.438072 L64.96,14.438072 L64.96,11.02 Z M17.725,10.4180452 C18.3269548,10.4180452 18.73,10.8865226 18.73,11.4230452 C18.73,11.9595678 18.2615226,12.4280452 17.725,12.4280452 C17.1884774,12.4280452 16.72,11.9595678 16.72,11.4230452 C16.72,10.8865226 17.1884774,10.4180452 17.725,10.4180452 Z M19,17 L21,17 L21,21 L19,21 L19,17 Z M36,17 L38,17 L38,21 L36,21 L36,17 Z M19,25 L21,25 L21,29 L19,29 L19,25 Z M36,25 L38,25 L38,29 L36,29 L36,25 Z M19,33 L21,33 L21,37 L19,37 L19,33 Z M36,33 L38,33 L38,37 L36,37 L36,33 Z M19,41 L21,41 L21,45 L19,45 L19,41 Z M36,41 L38,41 L38,45 L36,45 L36,41 Z M19,49 L21,49 L21,53 L19,53 L19,49 Z M36,49 L38,49 L38,53 L36,53 L36,49 Z M53,17 L55,17 L55,21 L53,21 L53,17 Z M53,25 L55,25 L55,29 L53,29 L53,25 Z M53,33 L55,33 L55,37 L53,37 L53,33 Z M53,41 L55,41 L55,45 L53,45 L53,41 Z M53,49 L55,49 L55,53 L53,53 L53,49 Z" id="browser" fill="#CFD0D3"></path>
        </g>
    </g>
</svg>
