<?xml version="1.0" standalone="no"?>
<!DOCTYPE svg
  PUBLIC '-//W3C//DTD SVG 1.1//EN'
  'http://www.w3.org/Graphics/SVG/1.1/DTD/svg11.dtd'>
<svg class="icon" height="73"  viewBox="-500 -500 2048 2048" width="73" p-id="1890" style="" t="1514974090091" version="1.1"  xmlns="http://www.w3.org/2000/svg" xmlns:xlink="http://www.w3.org/1999/xlink">
	<defs>
		<style type="text/css"/>
	</defs>
	<path d="M47.807229 160.385542C47.807229 70.939759 254.457831 0 513.542169 0s462.650602 70.939759 462.650602 160.385542c0 89.445783-206.650602 160.385542-462.650602 160.385542S47.807229 249.831325 47.807229 160.385542z m774.168675 61.686747c37.012048-12.337349 64.771084-27.759036 83.277108-40.096385 12.337349-9.253012 15.421687-15.421687 15.421687-18.506024 0-3.084337-3.084337-9.253012-15.421687-18.506025-18.506024-15.421687-46.26506-27.759036-83.277108-40.096385-80.192771-27.759036-191.228916-43.180723-308.433735-43.180723-120.289157 0-228.240964 15.421687-308.433735 43.180723-40.096386 9.253012-67.855422 21.590361-83.277109 37.012048-12.337349 9.253012-18.506024 15.421687-18.506024 18.506024 0 3.084337 3.084337 9.253012 15.421687 18.506024 18.506024 15.421687 46.26506 30.843373 83.277108 43.180723 80.192771 27.759036 191.228916 43.180723 308.433735 43.180723 120.289157 0 231.325301-15.421687 311.518073-43.180723z" fill="#cdcdcd" p-id="1891"/>
	<path d="M47.807229 194.313253v635.373494c33.927711 111.036145 218.987952 191.228916 471.903614 191.228916 132.626506 0 240.578313-24.674699 323.855422-64.771085 24.674699-12.337349 46.26506-24.674699 64.771084-37.012048 12.337349-9.253012 18.506024-15.421687 30.843374-24.674699 12.337349-9.253012 12.337349-27.759036 3.084337-40.096385-9.253012-12.337349-27.759036-12.337349-40.096385-3.084338-12.337349 9.253012-15.421687 15.421687-27.759036 21.590362-15.421687 12.337349-33.927711 21.590361-55.518073 33.927711-74.024096 37.012048-172.722892 58.60241-299.180723 58.602409-231.325301 0-391.710843-70.939759-416.385542-151.13253V656.963855 271.421687 194.313253v-27.759036c0-15.421687-12.337349-27.759036-27.759036-27.759036s-27.759036 9.253012-27.759036 24.674699v30.843373z" fill="#cdcdcd" p-id="1892"/>
	<path d="M917.590361 740.240964c0 15.421687 12.337349 27.759036 27.759037 27.759036s27.759036-12.337349 27.759036-27.759036l3.084337-561.349398c0-15.421687-12.337349-27.759036-27.759036-27.759036s-27.759036 12.337349-27.759036 27.759036L917.590361 740.240964z" fill="#cdcdcd" p-id="1893"/>
	<path d="M393.253012 768c215.903614 24.674699 428.722892-9.253012 564.433735-111.036145 9.253012-6.168675 9.253012-18.506024 3.084337-24.674698-6.168675-9.253012-18.506024-9.253012-24.674698-3.084338-126.457831 95.614458-330.024096 129.542169-536.674699 104.86747-175.807229-21.590361-311.518072-80.192771-305.349398-123.373494 0-9.253012-6.168675-18.506024-15.421687-21.590361-9.253012 0-18.506024 6.168675-21.590361 15.421686-9.253012 74.024096 141.879518 141.879518 336.192771 163.46988z" fill="#cdcdcd" p-id="1894"/>
	<path d="M393.253012 549.012048c215.903614 24.674699 428.722892-9.253012 564.433735-111.036144 9.253012-6.168675 9.253012-18.506024 3.084337-24.674699-6.168675-9.253012-18.506024-9.253012-24.674698-3.084338-126.457831 95.614458-330.024096 129.542169-536.674699 104.86747C223.614458 493.493976 87.903614 431.807229 94.072289 388.626506c0-9.253012-6.168675-18.506024-15.421687-21.590361-9.253012 0-18.506024 6.168675-21.590361 15.421686-9.253012 77.108434 141.879518 144.963855 336.192771 166.554217z" fill="#cdcdcd" p-id="1895"/>
	<path d="M806.554217 385.542169a27.759036 27.759036 0 1 0 55.518072 0 27.759036 27.759036 0 1 0-55.518072 0Z" fill="#cdcdcd" p-id="1896"/>
	<path d="M806.554217 604.53012a27.759036 27.759036 0 1 0 55.518072 0 27.759036 27.759036 0 1 0-55.518072 0Z" fill="#cdcdcd" p-id="1897"/>
	<path d="M806.554217 820.433735a27.759036 27.759036 0 1 0 55.518072 0 27.759036 27.759036 0 1 0-55.518072 0Z" fill="#cdcdcd" p-id="1898"/>
	<text x='100' y = '100' style='text-align:center; font-size:10px'>bindsource</text>
</svg>