<svg width="73px" height="73px" viewBox="0 0 73 73" version="1.1" xmlns="http://www.w3.org/2000/svg" xmlns:xlink="http://www.w3.org/1999/xlink">
    <!-- Generator: Sketch 44.1 (41455) - http://www.bohemiancoding.com/sketch -->
    <title>Dropdown</title>
    <desc>Created with Sketch.</desc>
    <defs>
        <rect id="path-1" x="0" y="0" width="73" height="73"></rect>
    </defs>
    <g id="Custom-Symbols" stroke="none" stroke-width="1" fill="none" fill-rule="evenodd">
        <g id="Element-Icons" transform="translate(-26.000000, -808.000000)"></g>
        <g id="Dropdown">
            <g id="Icon-Skeleton">
                <g id="Group-" stroke-width="1" fill-rule="evenodd">
                    <g id="Rectangle">
                        <use fill-opacity="0" fill="#D8D8D8" fill-rule="evenodd" xlink:href="#path-1"></use>
                        <rect stroke-opacity="0.5" stroke="#333333" stroke-width="1" x="0.5" y="0.5" width="72" height="72"></rect>
                    </g>
                </g>
                <text id="Icon-Label" font-family="Helvetica-Bold, Helvetica" font-size="9" font-weight="bold" fill="#CFD0D3">
                    <tspan x="14.7548828" y="67">Dropdown</tspan>
                </text>
            </g>
            <g id="Icon" transform="translate(19.000000, 27.000000)" fill="#CFD0D3">
                <path d="M32.946413,0 L2.0923913,0 C1.02686957,0 0.190217391,0.816845714 0.190217391,1.85714286 L0.190217391,11.1428571 C0.190217391,12.1831543 1.02686957,13 2.0923913,13 L31.310163,13 C33.2509891,13 34.8485109,11.4765486 34.8485109,9.54541714 L34.8485109,1.85721714 C34.8485109,0.81692 34.010375,7.42857143e-05 32.946337,7.42857143e-05 L32.946413,0 Z M19.9344022,11.4764 L2.09277136,11.4764 C1.90255397,11.4764 1.71233658,11.2906857 1.71233658,11.1049714 L1.71233658,1.85714286 C1.71233658,1.67142857 1.90255397,1.48571429 2.09277136,1.48571429 L19.9344022,1.48571429 L19.9344022,11.4764 Z M33.3268478,9.54526857 C33.3268478,10.6218171 32.414413,11.5141371 31.3102391,11.5141371 L21.4562174,11.5141371 L21.4562174,1.48556571 L32.9449674,1.48556571 C33.1738217,1.48556571 33.3254022,1.67128 33.3254022,1.85699429 L33.3268478,9.54526857 Z" id="Fill-1"></path>
                <path d="M30.5492935,4.71677143 C30.4348663,4.60505314 30.2832859,4.56877943 30.1302065,4.56877943 C29.9786261,4.56877943 29.825562,4.64277543 29.7111196,4.71677143 L27.5042935,6.87135429 L25.2974674,4.71677143 C25.1830402,4.60505314 25.0314598,4.56877943 24.8783804,4.56877943 C24.7268,4.56877943 24.5737359,4.64277543 24.4592935,4.71677143 L24.1174957,5.05047771 C24.0030685,5.162196 23.9272783,5.310188 23.9272783,5.45964343 C23.9272783,5.60763543 24.0030685,5.757076 24.1174957,5.86880914 L27.0851913,8.76624914 C27.1996185,8.87796743 27.3511989,8.95196343 27.5042783,8.95196343 C27.6558587,8.95196343 27.8089228,8.87796743 27.9233652,8.76624914 L30.8910609,5.86880914 C31.005488,5.75709086 31.0426413,5.60909886 31.0426413,5.45964343 C31.0426413,5.31165143 30.9668511,5.16221086 30.8910609,5.05047771 L30.5492935,4.71677143 Z" id="Fill-2"></path>
            </g>
        </g>
    </g>
</svg>
