<?xml version="1.0" encoding="utf-8"?>
<!-- Generator: Adobe Illustrator 21.0.0, SVG Export Plug-In . SVG Version: 6.00 Build 0)  -->
<svg xmlns="http://www.w3.org/2000/svg" xmlns:xlink="http://www.w3.org/1999/xlink" version="1.2" baseProfile="tiny" width="73px" height="73px" id="图层_1" x="0px" y="0px" viewBox="0 0 73 73" xml:space="preserve">
<path fill="#CFD0D3" d="M52.5,48.5c0,1.9-1.6,3.5-3.5,3.5H23.1c-1.9,0-3.5-1.6-3.5-3.5V23.7c0-1.9,1.6-3.5,3.5-3.5H49  c1.9,0,3.5,1.6,3.5,3.5V48.5z M50.5,23.7c0-0.8-0.7-1.5-1.5-1.5H23.1c-0.8,0-1.5,0.7-1.5,1.5v24.8c0,0.8,0.7,1.5,1.5,1.5H49  c0.8,0,1.5-0.7,1.5-1.5V23.7z"/>
<path fill="#CFD0D3" d="M20.5,45c-0.1,0-0.2,0-0.3-0.1c-0.2-0.2-0.3-0.5-0.1-0.7L28,32.8c0.4-0.6,1-0.9,1.6-1  c0.6-0.1,1.3,0.2,1.8,0.7l6.5,6.5c0.2,0.2,0.2,0.5,0,0.7c-0.2,0.2-0.5,0.2-0.7,0l-6.5-6.5c-0.3-0.3-0.6-0.4-0.9-0.4  c-0.3,0-0.6,0.2-0.9,0.5l-7.9,11.4C20.8,44.9,20.6,45,20.5,45z"/>
<path fill="#CFD0D3" d="M49,44.8c-0.1,0-0.2,0-0.3-0.1L48,44.1c-0.2-0.2-0.2-0.5,0-0.7c0.2-0.2,0.5-0.2,0.7,0l0.6,0.6  c0.2,0.2,0.2,0.5,0,0.7C49.3,44.8,49.1,44.8,49,44.8z"/>
<path fill="#CFD0D3" d="M28.8,51.8c-0.1,0-0.2,0-0.3-0.1c-0.2-0.2-0.3-0.5-0.1-0.7l10.2-13.7c0.4-0.5,1-0.9,1.6-0.9  c0.7-0.1,1.3,0.2,1.8,0.6l5.5,5.2c0.2,0.2,0.2,0.5,0,0.7c-0.2,0.2-0.5,0.2-0.7,0l-5.5-5.2c-0.3-0.3-0.6-0.4-1-0.4  c-0.4,0-0.7,0.2-0.9,0.5L29.2,51.6C29.1,51.8,28.9,51.8,28.8,51.8z"/>
<path fill="#CFD0D3" d="M40.5,32.9c-2.4,0-4.4-2-4.4-4.4s2-4.4,4.4-4.4s4.4,2,4.4,4.4S42.9,32.9,40.5,32.9z M40.5,25.1  c-1.9,0-3.4,1.5-3.4,3.4s1.5,3.4,3.4,3.4s3.4-1.5,3.4-3.4S42.3,25.1,40.5,25.1z"/>
<g id="Icon-Skeleton">
	<g id="Rectangle">
		<g>
			<rect id="path-1" fill="#D8D8D8" fill-opacity="0" width="73" height="73"/>
		</g>
		<rect x="0.5" y="0.5" fill="none" stroke="#333333" stroke-opacity="0.5" width="72" height="72"/>
	</g>
	<text transform="matrix(1 0 0 1 16.2512 67)" fill="#CFD0D3" font-family="'Arial-BoldMT'" font-size="9px">
    Image
  </text>
</g>
</svg>
