<?xml version="1.0" encoding="UTF-8"?>
<svg width="73px" height="73px" viewBox="0 0 73 73" version="1.1" xmlns="http://www.w3.org/2000/svg" xmlns:xlink="http://www.w3.org/1999/xlink">
    <!-- Generator: Sketch 44.1 (41455) - http://www.bohemiancoding.com/sketch -->
    <title>Process</title>
    <desc>Created with Sketch.</desc>
    <defs>
        <rect id="path-1" x="0" y="0" width="73" height="73"></rect>
    </defs>
    <g id="Custom-Symbols" stroke="none" stroke-width="1" fill="none" fill-rule="evenodd">
        <g id="Element-Icons" transform="translate(-109.000000, -1487.000000)"></g>
        <g id="Process">
            <g id="Icon-Skeleton">
                <g id="Group-" stroke-width="1" fill-rule="evenodd">
                    <g id="Rectangle">
                        <use fill-opacity="0" fill="#D8D8D8" fill-rule="evenodd" xlink:href="#path-1"></use>
                        <rect stroke-opacity="0.5" stroke="#333333" stroke-width="1" x="0.5" y="0.5" width="72" height="72"></rect>
                    </g>
                </g>
                <text id="Icon-Label" font-family="Helvetica-Bold, Helvetica" font-size="9" font-weight="bold" fill="#CFD0D3">
                    <tspan x="19.487793" y="67">Process</tspan>
                </text>
            </g>
            <g id="Icon" transform="translate(23.000000, 19.000000)" fill="#CFD0D3">
                <path d="M13.3542766,0.695907128 C11.2989987,0.695907128 9.60192097,2.25068123 9.37588135,4.23390713 L2.05875,4.23390713 C0.925035324,4.23390713 0,5.1494973 0,6.27931338 L0,23.4027911 C0,24.5326072 0.925035324,25.4619956 2.05875,25.4619956 L5.93979422,25.4619956 L3.26898341,27.7838081 C3.16813359,27.8563636 3.10379821,27.9686553 3.08988774,28.0913089 C3.07771774,28.2156917 3.1159682,28.3383454 3.19769501,28.4316336 C3.27941737,28.5249218 3.39765862,28.5784738 3.52285288,28.5819278 C3.64630665,28.5853818 3.76628838,28.5370129 3.85322772,28.4471787 L7.4143088,25.3514287 C7.50994164,25.2667776 7.56558353,25.1458532 7.56558353,25.0197412 C7.56558353,24.8936291 7.50994164,24.7727047 7.4143088,24.6880537 L3.85322772,21.5923037 C3.76802441,21.5093818 3.65152809,21.4644669 3.53328684,21.4679208 C3.34723371,21.473104 3.18378454,21.5940329 3.12466614,21.7702385 C3.06554775,21.9464486 3.12292566,22.139933 3.26898786,22.2556963 L5.93979867,24.5775088 L2.05875445,24.5775088 C1.40493996,24.5775088 0.890274722,24.0609608 0.890274722,23.4028044 L0.890274722,6.27932665 C0.890274722,5.62112597 1.40493996,5.1184204 2.05875445,5.1184204 L9.3758858,5.1184204 C9.60192988,7.1016463 11.2990031,8.6564204 13.3542811,8.6564204 C15.5608159,8.6564204 17.3604973,6.86840365 17.3604973,4.6761704 C17.3604973,2.48393715 15.5608159,0.695920395 13.3542811,0.695920395 L13.3542766,0.695907128 Z M23.1196512,1.12433681 C23.0205374,1.13470315 22.9266451,1.17961806 22.8553522,1.24871963 L19.2942711,4.34446963 C19.1986383,4.4291207 19.1429964,4.55004512 19.1429964,4.67615713 C19.1429964,4.80226914 19.1986383,4.92319355 19.2942711,5.00784463 L22.8553522,8.10359463 C22.9422916,8.19342445 23.0622688,8.24179775 23.1857271,8.23834378 C23.3109213,8.23488981 23.4291581,8.18133333 23.5108849,8.08804954 C23.5926073,7.99476132 23.6308622,7.87210771 23.6186922,7.7477249 C23.6047817,7.62507128 23.5404464,7.51277958 23.4395965,7.44022405 L20.7687857,5.11841155 L24.64983,5.11841155 C25.3036444,5.11841155 25.8183097,5.62111712 25.8183097,6.2793178 L25.8183097,23.4027955 C25.8183097,24.0609962 25.3036444,24.5775 24.64983,24.5775 L17.3326986,24.5775 C17.1066545,22.5942741 15.4095813,21.0395 13.3543033,21.0395 C11.1477685,21.0395 9.34808711,22.8275167 9.34808711,25.01975 C9.34808711,27.2119832 11.1477685,29 13.3543033,29 C15.4095813,29 17.106659,27.4452259 17.3326986,25.462 L24.64983,25.462 C25.7835446,25.462 26.70858,24.5325674 26.70858,23.4027955 L26.70858,6.2793178 C26.70858,5.14950172 25.7835446,4.23391155 24.64983,4.23391155 L20.7687857,4.23391155 L23.4395965,1.91209905 C23.5960883,1.79117021 23.6517301,1.58214075 23.5769608,1.3990006 C23.5039319,1.21588256 23.3161383,1.10532006 23.1196735,1.12432355 L23.1196512,1.12433681 Z M13.3542766,1.58038502 C15.0809113,1.58038502 16.4702226,2.96069149 16.4702226,4.67613502 C16.4702226,6.39157854 15.0809113,7.77188501 13.3542766,7.77188501 C11.6276419,7.77188501 10.2383307,6.39157854 10.2383307,4.67613502 C10.2383307,2.96069149 11.6276419,1.58038502 13.3542766,1.58038502 Z M13.3542766,21.923885 C15.0809113,21.923885 16.4702226,23.3041915 16.4702226,25.019635 C16.4702226,26.7350785 15.0809113,28.115385 13.3542766,28.115385 C11.6276419,28.115385 10.2383307,26.7350785 10.2383307,25.019635 C10.2383307,23.3041915 11.6276419,21.923885 13.3542766,21.923885 Z" id="Page-1"></path>
            </g>
        </g>
    </g>
</svg>