<svg width="73px" height="73px" viewBox="0 0 73 73" version="1.1" xmlns="http://www.w3.org/2000/svg" xmlns:xlink="http://www.w3.org/1999/xlink">
    <!-- Generator: Sketch 44.1 (41455) - http://www.bohemiancoding.com/sketch -->
    <title>Radio Button</title>
    <desc>Created with Sketch.</desc>
    <defs>
        <rect id="path-1" x="0" y="0" width="73" height="73"></rect>
    </defs>
    <g id="Custom-Symbols" stroke="none" stroke-width="1" fill="none" fill-rule="evenodd">
        <g id="Element-Icons" transform="translate(-109.000000, -808.000000)"></g>
        <g id="Radio-Button">
            <g id="Icon-Skeleton">
                <g id="Group-" stroke-width="1" fill-rule="evenodd">
                    <g id="Rectangle">
                        <use fill-opacity="0" fill="#D8D8D8" fill-rule="evenodd" xlink:href="#path-1"></use>
                        <rect stroke-opacity="0.5" stroke="#333333" stroke-width="1" x="0.5" y="0.5" width="72" height="72"></rect>
                    </g>
                </g>
                <text id="Icon-Label" font-family="Helvetica-Bold, Helvetica" font-size="9" font-weight="bold" fill="#CFD0D3">
                    <tspan x="8.75634766" y="67">Radio Button</tspan>
                </text>
            </g>
            <g id="Icon" transform="translate(25.000000, 21.000000)" fill="#CFD0D3">
                <path d="M3.54545455,6.81976744 C5.42577273,6.81976744 6.95454545,5.32062209 6.95454545,3.47674419 C6.95454545,1.63286628 5.42577273,0.13372093 3.54545455,0.13372093 C1.66513636,0.13372093 0.136363636,1.63286628 0.136363636,3.47674419 C0.136363636,5.32062209 1.66513636,6.81976744 3.54545455,6.81976744 Z M3.54545455,1.47093023 C4.67364545,1.47093023 5.59090909,2.37041744 5.59090909,3.47674419 C5.59090909,4.58307093 4.67364545,5.48255814 3.54545455,5.48255814 C2.41726364,5.48255814 1.5,4.58307093 1.5,3.47674419 C1.5,2.37041744 2.41726364,1.47093023 3.54545455,1.47093023 Z" id="Fill-1"></path>
                <path d="M3.54545455,4.81395349 C4.29758182,4.81395349 4.90909091,4.21429535 4.90909091,3.47674419 C4.90909091,2.73919302 4.29758182,2.13953488 3.54545455,2.13953488 C2.79332727,2.13953488 2.18181818,2.73919302 2.18181818,3.47674419 C2.18181818,4.21429535 2.79332727,4.81395349 3.54545455,4.81395349 Z" id="Fill-2"></path>
                <path d="M3.54545455,14.8430233 C5.42577273,14.8430233 6.95454545,13.3438779 6.95454545,11.5 C6.95454545,9.65612209 5.42577273,8.15697674 3.54545455,8.15697674 C1.66513636,8.15697674 0.136363636,9.65612209 0.136363636,11.5 C0.136363636,13.3438779 1.66513636,14.8430233 3.54545455,14.8430233 Z M3.54545455,9.49418605 C4.67364545,9.49418605 5.59090909,10.3936733 5.59090909,11.5 C5.59090909,12.6063267 4.67364545,13.505814 3.54545455,13.505814 C2.41726364,13.505814 1.5,12.6063267 1.5,11.5 C1.5,10.3936733 2.41726364,9.49418605 3.54545455,9.49418605 Z" id="Fill-3"></path>
                <path d="M3.54545455,22.8662791 C5.42577273,22.8662791 6.95454545,21.3671337 6.95454545,19.5232558 C6.95454545,17.6793779 5.42577273,16.1802326 3.54545455,16.1802326 C1.66513636,16.1802326 0.136363636,17.6793779 0.136363636,19.5232558 C0.136363636,21.3671337 1.66513636,22.8662791 3.54545455,22.8662791 Z M3.54545455,17.5174419 C4.67364545,17.5174419 5.59090909,18.4169291 5.59090909,19.5232558 C5.59090909,20.6295826 4.67364545,21.5290698 3.54545455,21.5290698 C2.41726364,21.5290698 1.5,20.6295826 1.5,19.5232558 C1.5,18.4169291 2.41726364,17.5174419 3.54545455,17.5174419 Z" id="Fill-4"></path>
                <path d="M23.3181818,2.80813953 L10.3636364,2.80813953 C9.98650909,2.80813953 9.68181818,3.10692558 9.68181818,3.47674419 C9.68181818,3.84656279 9.98650909,4.14534884 10.3636364,4.14534884 L23.3181818,4.14534884 C23.6953091,4.14534884 24,3.84656279 24,3.47674419 C24,3.10692558 23.6953091,2.80813953 23.3181818,2.80813953 Z" id="Fill-5"></path>
                <path d="M23.3181818,10.8313953 L10.3636364,10.8313953 C9.98650909,10.8313953 9.68181818,11.1301814 9.68181818,11.5 C9.68181818,11.8698186 9.98650909,12.1686047 10.3636364,12.1686047 L23.3181818,12.1686047 C23.6953091,12.1686047 24,11.8698186 24,11.5 C24,11.1301814 23.6953091,10.8313953 23.3181818,10.8313953 Z" id="Fill-6"></path>
                <path d="M23.3181818,18.8546512 L10.3636364,18.8546512 C9.98650909,18.8546512 9.68181818,19.1534372 9.68181818,19.5232558 C9.68181818,19.8930744 9.98650909,20.1918605 10.3636364,20.1918605 L23.3181818,20.1918605 C23.6953091,20.1918605 24,19.8930744 24,19.5232558 C24,19.1534372 23.6953091,18.8546512 23.3181818,18.8546512 Z" id="Fill-7"></path>
            </g>
        </g>
    </g>
</svg>
