<?xml version="1.0" encoding="UTF-8"?>
<svg width="73px" height="73px" viewBox="0 0 73 73" version="1.1" xmlns="http://www.w3.org/2000/svg" xmlns:xlink="http://www.w3.org/1999/xlink">
    <!-- Generator: Sketch 44.1 (41455) - http://www.bohemiancoding.com/sketch -->
    <title>Textarea@2x</title>
    <desc>Created with Sketch.</desc>
    <defs>
        <rect id="path-1" x="0" y="0" width="73" height="73"></rect>
    </defs>
    <g id="Custom-Symbols" stroke="none" stroke-width="1" fill="none" fill-rule="evenodd">
        <g id="Element-Icons" transform="translate(-109.000000, -720.000000)"></g>
        <g id="Textarea">
            <g id="Icon-Skeleton">
                <g id="Group-" stroke-width="1" fill-rule="evenodd">
                    <g id="Rectangle">
                        <use fill-opacity="0" fill="#D8D8D8" fill-rule="evenodd" xlink:href="#path-1"></use>
                        <rect stroke-opacity="0.5" stroke="#333333" stroke-width="1" x="0.5" y="0.5" width="72" height="72"></rect>
                    </g>
                </g>
                <text id="Icon-Label" font-family="Helvetica-Bold, Helvetica" font-size="9" font-weight="bold" fill="#CFD0D3">
                    <tspan x="18.8198242" y="67">Textarea</tspan>
                </text>
            </g>
            <g id="Icon" transform="translate(24.000000, 20.000000)" fill="#CFD0D3">
                <path d="M2.88888889,8.30555556 C2.68914822,8.30555556 2.52777778,8.466926 2.52777778,8.66666667 C2.52777778,8.86640733 2.68914822,9.02777778 2.88888889,9.02777778 L5.77777778,9.02777778 C5.97751844,9.02777778 6.13888889,8.86640733 6.13888889,8.66666667 C6.13888889,8.466926 5.97751844,8.30555556 5.77777778,8.30555556 L4.69444444,8.30555556 L4.69444444,3.25 L5.77777778,3.25 C5.97751844,3.25 6.13888889,3.08862956 6.13888889,2.88888889 C6.13888889,2.68914822 5.97751844,2.52777778 5.77777778,2.52777778 L2.88888889,2.52777778 C2.68914822,2.52777778 2.52777778,2.68914822 2.52777778,2.88888889 C2.52777778,3.08862956 2.68914822,3.25 2.88888889,3.25 L3.97222222,3.25 L3.97222222,8.30555556 L2.88888889,8.30555556 Z" id="Fill-1"></path>
                <path d="M25.2777778,0 L0.722222222,0 C0.322746667,0 0,0.322746667 0,0.722222222 L0,25.2777778 C0,25.6772533 0.322746667,26 0.722222222,26 L25.2777778,26 C25.6772533,26 26,25.6772533 26,25.2777778 L26,0.722222222 C26,0.322746667 25.6772533,0 25.2777778,0 Z M16.6111111,24.5555556 L1.44444444,24.5555556 L1.44444444,1.44444444 L16.6111111,1.44444444 L16.6111111,24.5555556 Z M24.5555556,24.5555556 L17.3333333,24.5555556 L17.3333333,1.44444444 L24.5555556,1.44444444 L24.5555556,24.5555556 Z" id="Fill-2"></path>
                <path d="M20.6893556,23.0050889 C20.7593216,23.0761816 20.8518556,23.111166 20.9443896,23.111166 C21.0369236,23.111166 21.1294576,23.0761844 21.1994236,23.0050889 L22.643868,21.5606444 C22.7465593,21.4579531 22.7781551,21.3022247 22.7217322,21.1668022 C22.666436,21.0325151 22.5344051,20.9444936 22.3888456,20.9444936 L19.4999567,20.9444936 C19.3543827,20.9444936 19.2223518,21.0325151 19.1659433,21.1668022 C19.1106471,21.3022189 19.1411162,21.4568178 19.2438076,21.5606444 L20.6893556,23.0050889 Z" id="Fill-3"></path>
                <path d="M19.5,5.05555556 L22.3888889,5.05555556 L22.3945309,5.05555556 C22.5942716,5.05555556 22.755642,4.89418511 22.755642,4.69444444 C22.755642,4.57482711 22.6980896,4.46987956 22.6089413,4.40330222 L21.1994813,2.99384222 C21.0584227,2.85278356 20.8304836,2.85278356 20.6882924,2.99384222 L19.243848,4.43828667 C19.1411567,4.540978 19.1095609,4.69670644 19.1659838,4.83212889 C19.2224067,4.96755133 19.3544376,5.05556711 19.4999971,5.05556711 L19.5,5.05555556 Z" id="Fill-4"></path>
            </g>
        </g>
    </g>
</svg>