<svg width="73px" height="73px" viewBox="0 0 73 73" version="1.1" xmlns="http://www.w3.org/2000/svg" xmlns:xlink="http://www.w3.org/1999/xlink">
    <!-- Generator: Sketch 44.1 (41455) - http://www.bohemiancoding.com/sketch -->
    <title>Time Icon</title>
    <desc>Created with Sketch.</desc>
    <defs>
        <rect id="path-1" x="0" y="0" width="73" height="73"></rect>
    </defs>
    <g id="Custom-Symbols" stroke="none" stroke-width="1" fill="none" fill-rule="evenodd">
        <g id="Element-Icons" transform="translate(-109.000000, -513.000000)"></g>
        <g id="Time-Icon">
            <g id="Icon-Skeleton">
                <g id="Group-" stroke-width="1" fill-rule="evenodd">
                    <g id="Rectangle">
                        <use fill-opacity="0" fill="#D8D8D8" fill-rule="evenodd" xlink:href="#path-1"></use>
                        <rect stroke-opacity="0.5" stroke="#333333" stroke-width="1" x="0.5" y="0.5" width="72" height="72"></rect>
                    </g>
                </g>
                <text id="Icon-Label" font-family="Helvetica-Bold, Helvetica" font-size="9" font-weight="bold" fill="#CFD0D3">
                    <tspan x="26.5761719" y="67">Date</tspan>
                </text>
            </g>
            <g id="Icon" transform="translate(21.000000, 16.000000)" fill="#CFD0D3">
                <path d="M15.5,4.10294118 C21.7683824,4.10294118 26.8970588,9.23161765 26.8970588,15.5 C26.8970588,21.7683824 21.7683824,26.8970588 15.5,26.8970588 C9.23161765,26.8970588 4.10294118,21.7683824 4.10294118,15.5 C4.10294118,9.23161765 9.23161765,4.10294118 15.5,4.10294118 L15.5,4.10294118 Z M15.5,0.304529412 C7.14276471,0.304529412 0.304529412,7.14276471 0.304529412,15.5 C0.304529412,23.8572353 7.14276471,30.6954706 15.5,30.6954706 C23.8572353,30.6954706 30.6954706,23.8572353 30.6954706,15.5 C30.6954706,7.14276471 23.8572353,0.304529412 15.5,0.304529412 Z" id="Fill-1"></path>
                <path d="M21.7683824,20.9136029 C21.4834559,20.9136029 21.1985294,20.8192216 21.0079706,20.7230578 L14.0753676,16.3547931 L14.0753676,11.7016019 C14.0753676,10.9411901 14.7395882,10.2769696 15.5,10.2769696 C16.2604118,10.2769696 16.9246324,10.9411901 16.9246324,11.7016019 L16.9246324,14.7414254 L22.5287941,18.2549107 C23.1930147,18.6342185 23.3835735,19.5851754 23.0042794,20.249396 C22.7175704,20.6287038 22.2438676,20.9136166 21.7684279,20.9136166 L21.7683824,20.9136029 Z" id="Fill-2"></path>
                <path d="M16.4491471,6.00305882 C16.4491471,7.26918088 14.5508074,7.26918088 14.5508074,6.00305882 C14.5508074,4.73693676 16.4491471,4.73693676 16.4491471,6.00305882" id="Fill-3"></path>
                <path d="M6.95220588,15.5 C6.95220588,16.7661221 5.05208824,16.7661221 5.05208824,15.5 C5.05208824,14.2338779 6.95220588,14.2338779 6.95220588,15.5" id="Fill-4"></path>
                <path d="M16.4491471,24.9969412 C16.4491471,26.2630632 14.5508074,26.2630632 14.5508074,24.9969412 C14.5508074,23.7308191 16.4491471,23.7308191 16.4491471,24.9969412" id="Fill-5"></path>
                <path d="M25.9479118,15.5 C25.9479118,16.7661221 24.0477941,16.7661221 24.0477941,15.5 C24.0477941,14.2338779 25.9479118,14.2338779 25.9479118,15.5" id="Fill-6"></path>
            </g>
        </g>
    </g>
</svg>
