<?xml version="1.0" encoding="UTF-8"?>
<svg width="73px" height="73px" viewBox="0 0 73 73" version="1.1" xmlns="http://www.w3.org/2000/svg" xmlns:xlink="http://www.w3.org/1999/xlink">
    <!-- Generator: Sketch 46.2 (44496) - http://www.bohemiancoding.com/sketch -->
    <title>Tree Grid</title>
    <desc>Created with Sketch.</desc>
    <defs>
        <rect id="path-1" x="0" y="0" width="73" height="73"></rect>
    </defs>
    <g id="Custom-Symbols" stroke="none" stroke-width="1" fill="none" fill-rule="evenodd">
        <g id="Element-Icons" transform="translate(-100.000000, -1414.000000)"></g>
        <g id="Tree-Grid">
            <g id="Icon-Skeleton">
                <g id="Group-" stroke-width="1" fill-rule="evenodd">
                    <g id="Rectangle">
                        <use fill-opacity="0" fill="#D8D8D8" fill-rule="evenodd" xlink:href="#path-1"></use>
                        <rect stroke-opacity="0.5" stroke="#333333" stroke-width="1" x="0.5" y="0.5" width="72" height="72"></rect>
                    </g>
                </g>
                <text id="Icon-Label" font-family="Helvetica-Bold, Helvetica" font-size="9" font-weight="bold" fill="#CFD0D3">
                    <tspan x="17.2399902" y="67">Tree Grid</tspan>
                </text>
            </g>
            <g id="Icon" transform="translate(21.000000, 17.000000)" fill-rule="nonzero" fill="#CFD0D3">
                <path d="M3.33234671,-8.52651283e-14 C1.4949162,-8.52651283e-14 0,1.51247757 0,3.36990275 L0,27.6300972 C0,29.4875224 1.4949482,31 3.33362665,31 L28.6663733,31 C30.5050518,31 32,29.4875224 32,27.6300972 L31.9987501,3.36990275 C31.9987501,1.51247757 30.5038019,-8.49778299e-14 28.6651235,-8.49778299e-14 L3.33234671,-8.52651283e-14 Z M28.6650934,29.6517801 L3.33234671,29.6517801 C2.23114275,29.6517801 1.33367465,28.7445459 1.33367465,27.6300972 L1.33367465,6.7398055 L30.6662613,6.7398055 L30.6650112,27.6300972 C30.6650112,28.7445459 29.7675431,29.6517801 28.6650912,29.6517801 L28.6650934,29.6517801 Z" id="Shape"></path>
                <path d="M4,3.5 C4,4.16666667 3,4.16666667 3,3.5 C3,2.83333333 4,2.83333333 4,3.5" id="Shape"></path>
                <path d="M6,3.5 C6,4.16666667 5,4.16666667 5,3.5 C5,2.83333333 6,2.83333333 6,3.5" id="Shape"></path>
                <path d="M9,3.5 C9,4.16666667 8,4.16666667 8,3.5 C8,2.83333333 9,2.83333333 9,3.5" id="Shape"></path>
                <path d="M12.3336791,15.5383763 L9.66700311,15.5383763 C9.29945501,15.5383763 9.00065415,15.8313949 9.00065415,16.1930614 L9.00065415,16.8465224 L7.66667603,16.8465224 L7.66667603,12.9232455 L8.33302499,12.9232455 C8.70182129,12.9232455 9.00062215,12.6302269 9.00062215,12.2697845 L9.00062215,9.653461 C9.00062215,9.2930217 8.70182449,9 8.33427319,9 L5.66759716,9 C5.29880086,9 5,9.29301856 5,9.653461 L5,12.2685604 C5,12.6289997 5.29879766,12.9220214 5.66634896,12.9220214 L6.33269791,12.9232474 L6.33269791,24.039617 C6.33269791,24.4000563 6.63149557,24.693078 6.99904687,24.693078 L9.00062215,24.693078 L9.00062215,25.346539 C9.00062215,25.7069783 9.2994198,26 9.6669711,26 L12.3336471,26 C12.7011952,26 12.9999961,25.7069814 12.9999961,25.346539 L12.9999961,22.7314396 C12.9999961,22.3710003 12.7011984,22.0779786 12.3336471,22.0779786 L9.6669711,22.0779786 C9.299423,22.0779786 9.00062215,22.3709971 9.00062215,22.7314396 L9.00062215,23.3849006 L7.66664403,23.3849006 L7.66664403,18.1534462 L9.00062215,18.1534462 L9.00062215,18.8081313 C9.00062215,19.1685706 9.2994198,19.4615923 9.6669711,19.4615923 L12.3336471,19.4615923 C12.7011952,19.4615923 12.9999961,19.1685737 12.9999961,18.8081313 L12.9999961,16.1930319 C13.0012465,15.8313685 12.7024466,15.5383468 12.3336471,15.5383468 L12.3336791,15.5383763 Z M6.33269791,10.3081774 L7.66667603,10.3081774 L7.66667603,11.6163549 L6.33269791,11.6151286 L6.33269791,10.3081774 Z M10.3333521,23.3849301 L11.6673302,23.3849301 L11.6673302,24.6931075 L10.3333521,24.6931075 L10.3333521,23.3849301 Z M11.6673302,18.1547312 L10.3333521,18.1547312 L10.3333521,16.8465538 L11.6673302,16.8465538 L11.6673302,18.1547312 Z" id="Shape"></path>
                <path d="M12.6870875,12 L22.3129125,12 C22.6918997,12 23,11.7757949 23,11.5 C23,11.2242051 22.691903,11 22.3129125,11 L12.6870875,11 C12.3081003,11 12,11.2242051 12,11.5 C12,11.7757949 12.308097,12 12.6870875,12 Z" id="Shape"></path>
                <path d="M26.3129125,17 L16.6870875,17 C16.3081003,17 16,17.2242051 16,17.5 C16,17.7757925 16.308097,18 16.6870875,18 L26.3129125,18 C26.6918997,18 27,17.7757949 27,17.5 C27,17.2242075 26.691903,17 26.3129125,17 Z" id="Shape"></path>
                <path d="M26.3129125,24 L16.6870875,24 C16.3081003,24 16,24.2242051 16,24.5 C16,24.7757925 16.308097,25 16.6870875,25 L26.3129125,25 C26.6918997,25 27,24.7757949 27,24.5 C27,24.2242075 26.691903,24 26.3129125,24 Z" id="Shape"></path>
            </g>
        </g>
    </g>
</svg>